<svg id="visual" viewBox="0 0 900 600" width="900" height="600" xmlns="http://www.w3.org/2000/svg" xmlns:xlink="http://www.w3.org/1999/xlink" version="1.1"><rect x="0" y="0" width="900" height="600" fill="#4FACF7"></rect><path d="M0 380L129 356L257 390L386 362L514 410L643 383L771 339L900 343L900 601L771 601L643 601L514 601L386 601L257 601L129 601L0 601Z" fill="#0af598"></path><path d="M0 399L129 440L257 392L386 380L514 406L643 387L771 382L900 455L900 601L771 601L643 601L514 601L386 601L257 601L129 601L0 601Z" fill="#20b270"></path><path d="M0 425L129 485L257 476L386 453L514 411L643 462L771 421L900 443L900 601L771 601L643 601L514 601L386 601L257 601L129 601L0 601Z" fill="#21744b"></path><path d="M0 526L129 479L257 517L386 523L514 478L643 459L771 496L900 502L900 601L771 601L643 601L514 601L386 601L257 601L129 601L0 601Z" fill="#183b28"></path><path d="M0 515L129 533L257 534L386 511L514 538L643 516L771 555L900 546L900 601L771 601L643 601L514 601L386 601L257 601L129 601L0 601Z" fill="#000301"></path></svg>